<mxfile host="app.diagrams.net" modified="2023-07-03T14:28:42.937Z" agent="Mozilla/5.0 (Windows NT 10.0; Win64; x64) AppleWebKit/537.36 (KHTML, like Gecko) Chrome/114.0.0.0 Safari/537.36" version="21.5.2" etag="sW-Opa1mYExFqZIB0CUf" type="github">
  <diagram name="PÃ¡gina-1" id="QP5a3DkK7k0fpAOKrGqR">
    <mxGraphModel>
      <root>
        <mxCell id="0" />
        <mxCell id="1" parent="0" />
      </root>
    </mxGraphModel>
  </diagram>
</mxfile>
